<svg width="64" height="64" viewBox="0 0 64 64" fill="none" xmlns="http://www.w3.org/2000/svg">
  <defs>
    <radialGradient id="bgGlow" cx="0" cy="0" r="1" gradientUnits="userSpaceOnUse" gradientTransform="translate(22 18) rotate(38) scale(42 38)">
      <stop offset="0" stop-color="#6EA8FF" stop-opacity="0.18"></stop>
      <stop offset="0.45" stop-color="#3E7EFF" stop-opacity="0.08"></stop>
      <stop offset="1" stop-color="#050A14" stop-opacity="0"></stop>
    </radialGradient>

    <radialGradient id="blobFill" cx="0" cy="0" r="1" gradientUnits="userSpaceOnUse" gradientTransform="translate(33 33) rotate(8) scale(22 16)">
      <stop offset="0" stop-color="#EAF4FF"></stop>
      <stop offset="0.42" stop-color="#BFD8FF"></stop>
      <stop offset="0.78" stop-color="#79AFFF"></stop>
      <stop offset="1" stop-color="#4B7BFF"></stop>
    </radialGradient>

    <filter id="softGlow" x="-40%" y="-40%" width="180%" height="180%">
      <feGaussianBlur stdDeviation="3.8" result="blur"></feGaussianBlur>
      <feColorMatrix in="blur" type="matrix" values="1 0 0 0 0
                0 1 0 0 0
                0 0 1 0 0
                0 0 0 0.9 0"></feColorMatrix>
    </filter>

    <filter id="rimGlow" x="-50%" y="-50%" width="200%" height="200%">
      <feGaussianBlur stdDeviation="1.2"></feGaussianBlur>
    </filter>
  </defs>

  <rect width="64" height="64" rx="18" fill="#040913"></rect>
  <rect width="64" height="64" rx="18" fill="url(#bgGlow)"></rect>
  <rect x="1" y="1" width="62" height="62" rx="17" stroke="#9CC7FF" stroke-opacity="0.10"></rect>

  <g filter="url(#softGlow)" opacity="0.95">
    <path d="M13 34.5C13 28.3 18.9 24.5 26.5 24.5H39.2C47.1 24.5 51 28.2 51 33.3C51 38.7 46.3 41.4 40.7 42.1L24.1 44.1C17.2 44.9 13 41.5 13 34.5Z" fill="url(#blobFill)"></path>
  </g>

  <path d="M13 34.5C13 28.3 18.9 24.5 26.5 24.5H39.2C47.1 24.5 51 28.2 51 33.3C51 38.7 46.3 41.4 40.7 42.1L24.1 44.1C17.2 44.9 13 41.5 13 34.5Z" fill="url(#blobFill)"></path>

  <path d="M18 28.6C22.1 24.2 30.2 22 39 22.2C46.7 22.4 51.2 25.7 52.7 29.7" stroke="#F4FAFF" stroke-opacity="0.78" stroke-width="2.3" stroke-linecap="round" filter="url(#rimGlow)"></path>

  <path d="M19.3 43.8C23.5 47 31.1 48.2 38.5 47.5C45.9 46.8 50.8 44.1 53 40.7" stroke="#DDEFFF" stroke-opacity="0.46" stroke-width="1.7" stroke-linecap="round" filter="url(#rimGlow)"></path>
</svg>